<svg width="20" height="16" viewBox="0 0 20 16" fill="none" xmlns="http://www.w3.org/2000/svg">
<path d="M4.54351 1.00041C4.4634 0.918668 4.36796 0.853513 4.26266 0.808669C4.15735 0.763825 4.04425 0.740169 3.9298 0.739055C3.81535 0.737941 3.7018 0.759389 3.59564 0.802174C3.48949 0.844959 3.3928 0.908243 3.31111 0.988409C2.38705 1.9071 1.65405 2.99968 1.15439 4.2031C0.654727 5.40653 0.398304 6.69698 0.39991 8.00001C0.398411 9.35303 0.675015 10.6919 1.21255 11.9336C1.75009 13.1753 2.53709 14.2932 3.52471 15.218C3.69093 15.3717 3.9105 15.4545 4.1368 15.4489C4.36309 15.4433 4.57829 15.3497 4.73671 15.188C5.11591 14.8088 5.06911 14.2052 4.70431 13.856C3.91171 13.1007 3.28098 12.192 2.85045 11.1853C2.41992 10.1786 2.19859 9.0949 2.19991 8.00001C2.19991 5.78481 3.08911 3.77601 4.53151 2.31441C4.87951 1.96041 4.91551 1.37241 4.54351 1.00041ZM6.65671 3.11601C6.49867 2.95339 6.28261 2.86006 6.05588 2.85646C5.82914 2.85286 5.61023 2.93929 5.44711 3.09681C4.79785 3.73756 4.2825 4.50102 3.93104 5.34279C3.57958 6.18456 3.39904 7.08782 3.39991 8.00001C3.3985 8.96451 3.60002 9.91853 3.99138 10.8001C4.38274 11.6816 4.95518 12.4709 5.67151 13.1168C5.83621 13.2623 6.05058 13.3389 6.27019 13.3306C6.48981 13.3223 6.69782 13.2299 6.85111 13.0724C7.24471 12.6788 7.17151 12.0596 6.80191 11.7116C6.29528 11.2354 5.89172 10.6603 5.61617 10.0219C5.34063 9.38347 5.19895 8.69534 5.19991 8.00001C5.19991 6.62001 5.74831 5.36721 6.63991 4.44801C6.98311 4.09521 7.03951 3.49641 6.65671 3.11481V3.11601ZM13.3431 3.11601C13.5012 2.95339 13.7172 2.86006 13.9439 2.85646C14.1707 2.85286 14.3896 2.93929 14.5527 3.09681C15.202 3.73756 15.7173 4.50102 16.0688 5.34279C16.4202 6.18456 16.6008 7.08782 16.5999 8.00001C16.6013 8.96451 16.3998 9.91853 16.0084 10.8001C15.6171 11.6816 15.0446 12.4709 14.3283 13.1168C14.1636 13.2623 13.9492 13.3389 13.7296 13.3306C13.51 13.3223 13.302 13.2299 13.1487 13.0724C12.7551 12.6788 12.8283 12.0596 13.1979 11.7116C13.7045 11.2354 14.1081 10.6603 14.3836 10.0219C14.6592 9.38347 14.8009 8.69534 14.7999 8.00001C14.7999 6.62001 14.2515 5.36721 13.3599 4.44801C13.0167 4.09521 12.9603 3.49641 13.3431 3.11481V3.11601ZM15.4563 1.00161C15.5364 0.919868 15.6319 0.854713 15.7372 0.809869C15.8425 0.765025 15.9556 0.74137 16.07 0.740255C16.1845 0.739141 16.298 0.760589 16.4042 0.803374C16.5103 0.846159 16.607 0.909443 16.6887 0.989609C17.6126 1.90816 18.3455 3.00054 18.8452 4.20375C19.3449 5.40696 19.6014 6.69718 19.5999 8.00001C19.6014 9.35303 19.3248 10.6919 18.7873 11.9336C18.2497 13.1753 17.4627 14.2932 16.4751 15.218C16.3089 15.3717 16.0893 15.4545 15.863 15.4489C15.6367 15.4433 15.4215 15.3497 15.2631 15.188C14.8839 14.8088 14.9307 14.2052 15.2967 13.856C16.0891 13.1005 16.7196 12.1919 17.1499 11.1852C17.5802 10.1785 17.8014 9.09481 17.7999 8.00001C17.7999 5.78481 16.9107 3.77601 15.4683 2.31441C15.1203 1.96041 15.0843 1.37241 15.4563 1.00041V1.00161ZM9.99991 6.20001C9.52252 6.20001 9.06468 6.38965 8.72712 6.72722C8.38955 7.06478 8.19991 7.52262 8.19991 8.00001C8.19991 8.4774 8.38955 8.93524 8.72712 9.2728C9.06468 9.61037 9.52252 9.80001 9.99991 9.80001C10.4773 9.80001 10.9351 9.61037 11.2727 9.2728C11.6103 8.93524 11.7999 8.4774 11.7999 8.00001C11.7999 7.52262 11.6103 7.06478 11.2727 6.72722C10.9351 6.38965 10.4773 6.20001 9.99991 6.20001Z" fill="#EB0779"/>
</svg>
